<svg width="86" height="65" viewBox="0 0 86 65" fill="none" xmlns="http://www.w3.org/2000/svg">
<path d="M48 47.74C48 58.8867 54.2333 64.46 66.7 64.46C79.1667 64.46 85.4 58.8867 85.4 47.74C85.4 37.9133 82.9067 28.82 77.92 20.46C72.9333 11.9533 66.92 5.20666 59.88 0.219987L50.64 5.93999C55.48 14.0067 57.9 21.9267 57.9 29.7C57.9 30.8733 57.8267 31.9733 57.68 33C54.8933 33.88 52.62 35.7133 50.86 38.5C48.9533 41.14 48 44.22 48 47.74ZM0.259994 47.74C0.259994 58.8867 6.49333 64.46 18.96 64.46C31.4267 64.46 37.66 58.8867 37.66 47.74C37.66 37.9133 35.1667 28.82 30.18 20.46C25.1933 11.9533 19.18 5.20666 12.14 0.219987L2.89999 5.93999C7.74 14.0067 10.16 21.9267 10.16 29.7C10.16 30.8733 10.0867 31.9733 9.93999 33C7.15333 33.88 4.88 35.7133 3.12 38.5C1.21333 41.14 0.259994 44.22 0.259994 47.74Z" fill="#FFF8F2"/>
</svg>
