<svg width="7" height="7" viewBox="0 0 7 7" fill="none" xmlns="http://www.w3.org/2000/svg">
<path d="M0.48 4.528C0.4 4.496 0.344 4.452 0.312 4.396C0.288 4.34 0.276 4.268 0.276 4.18V3.28C0.276 3.192 0.288 3.12 0.312 3.064C0.344 3.008 0.4 2.964 0.48 2.932L5.76 0.603999C5.808 0.58 5.848 0.568 5.88 0.568C5.928 0.568 5.964 0.584 5.988 0.616C6.02 0.648 6.036 0.692 6.036 0.748V2.428C6.036 2.524 6.02 2.592 5.988 2.632C5.964 2.664 5.912 2.696 5.832 2.728L3.204 3.712L5.832 4.696C5.912 4.728 5.964 4.764 5.988 4.804C6.02 4.836 6.036 4.9 6.036 4.996V6.712C6.036 6.768 6.02 6.812 5.988 6.844C5.964 6.876 5.928 6.892 5.88 6.892C5.848 6.892 5.808 6.88 5.76 6.856L0.48 4.528Z" fill="#873900"/>
</svg>
